<svg xmlns="http://www.w3.org/2000/svg" viewBox="0 0 1600 900" role="img" aria-labelledby="title desc">
  <title id="title">From vague story to clear spec</title>
  <desc id="desc">A quiet paper-like engineering illustration showing a blurry note becoming a clear spec checklist.</desc>
  <defs>
    <filter id="softBlur" x="-20%" y="-20%" width="140%" height="140%">
      <feGaussianBlur stdDeviation="5" />
    </filter>
    <pattern id="paper" width="32" height="32" patternUnits="userSpaceOnUse">
      <rect width="32" height="32" fill="#f4f1ea" />
      <path d="M0 31.5H32M31.5 0V32" stroke="#ded8cb" stroke-width="0.45" opacity="0.35" />
    </pattern>
  </defs>
  <rect width="1600" height="900" fill="url(#paper)" />
  <rect x="70" y="70" width="1460" height="760" rx="28" fill="#f7f4ed" stroke="#d2cbbb" stroke-width="2" />

  <g opacity="0.72" filter="url(#softBlur)">
    <rect x="170" y="210" width="420" height="360" rx="18" fill="#e6dcc8" stroke="#b9ad99" stroke-width="4" />
    <path d="M220 295h260M220 350h310M220 405h230M220 460h280" stroke="#7f8f95" stroke-width="18" stroke-linecap="round" opacity="0.42" />
    <circle cx="518" cy="515" r="26" fill="#9caeac" opacity="0.34" />
  </g>

  <path d="M690 450C765 420 815 420 890 450" fill="none" stroke="#8a9b9d" stroke-width="8" stroke-linecap="round" stroke-dasharray="16 18" opacity="0.62" />
  <path d="M875 420l42 31-46 24" fill="none" stroke="#8a9b9d" stroke-width="8" stroke-linecap="round" stroke-linejoin="round" opacity="0.62" />

  <g>
    <rect x="960" y="160" width="450" height="560" rx="20" fill="#fbfaf6" stroke="#b8c0bb" stroke-width="4" />
    <rect x="1015" y="225" width="250" height="24" rx="8" fill="#7d8f91" opacity="0.72" />
    <rect x="1015" y="272" width="332" height="10" rx="5" fill="#c3cbc5" />
    <rect x="1015" y="302" width="280" height="10" rx="5" fill="#d3d5cc" />
    <g fill="none" stroke="#7b908e" stroke-width="5" stroke-linecap="round" stroke-linejoin="round">
      <rect x="1018" y="370" width="28" height="28" rx="5" />
      <path d="M1024 384l8 8 18-22" />
      <rect x="1018" y="430" width="28" height="28" rx="5" />
      <path d="M1024 444l8 8 18-22" />
      <rect x="1018" y="490" width="28" height="28" rx="5" />
      <path d="M1024 504l8 8 18-22" />
    </g>
    <g fill="#aeb9b5">
      <rect x="1070" y="376" width="235" height="12" rx="6" />
      <rect x="1070" y="436" width="285" height="12" rx="6" />
      <rect x="1070" y="496" width="210" height="12" rx="6" />
    </g>
    <rect x="1015" y="580" width="330" height="86" rx="13" fill="#eef1ed" stroke="#c0cac4" stroke-width="2" />
    <g stroke="#819493" stroke-width="6" stroke-linecap="round" opacity="0.7">
      <path d="M1050 620h95M1170 620h135M1050 645h185" />
    </g>
  </g>
</svg>
